<svg xmlns="http://www.w3.org/2000/svg" width="1200" height="675" viewBox="0 0 1200 675" role="img" aria-label="Abstract data leak">
  <defs>
    <linearGradient id="bg" x1="0" y1="0" x2="1" y2="1">
      <stop offset="0" stop-color="#090f1f"/>
      <stop offset="1" stop-color="#05070f"/>
    </linearGradient>
    <radialGradient id="drop" cx="55%" cy="40%" r="55%">
      <stop offset="0" stop-color="#60a5fa" stop-opacity="0.18"/>
      <stop offset="1" stop-color="#60a5fa" stop-opacity="0"/>
    </radialGradient>
  </defs>

  <rect width="1200" height="675" fill="url(#bg)"/>
  <rect width="1200" height="675" fill="url(#drop)"/>

  <!-- stylized database -->
  <g transform="translate(180,150)">
    <ellipse cx="260" cy="70" rx="260" ry="58" fill="#0f172a" stroke="#93c5fd" opacity="0.8"/>
    <path d="M0 70v210c0 32 116 58 260 58s260-26 260-58V70" fill="#0b1225" stroke="#93c5fd" opacity="0.75"/>
    <ellipse cx="260" cy="280" rx="260" ry="58" fill="#0f172a" stroke="#93c5fd" opacity="0.8"/>

    <path d="M80 140h360" stroke="#93c5fd" opacity="0.45"/>
    <path d="M80 200h360" stroke="#93c5fd" opacity="0.35"/>

    <!-- leak droplet -->
    <path d="M520 120c28 42 48 70 48 98 0 34-28 62-62 62s-62-28-62-62c0-28 20-56 48-98 6-9 14-9 28 0z" fill="#60a5fa" opacity="0.85"/>
    <circle cx="506" cy="228" r="10" fill="#e0f2fe" opacity="0.85"/>
  </g>

  <!-- warning lines -->
  <g stroke="#60a5fa" opacity="0.35">
    <path d="M720 120L1040 80"/>
    <path d="M740 160L1100 180"/>
    <path d="M710 210L1020 290"/>
  </g>
</svg>
