<svg xmlns="http://www.w3.org/2000/svg" width="1200" height="675" viewBox="0 0 1200 675" role="img" aria-label="Surveillance grid">
  <defs>
    <linearGradient id="bg" x1="0" y1="0" x2="1" y2="1">
      <stop offset="0" stop-color="#070a12"/>
      <stop offset="1" stop-color="#05070f"/>
    </linearGradient>
    <radialGradient id="pulse" cx="50%" cy="52%" r="55%">
      <stop offset="0" stop-color="#22c55e" stop-opacity="0.10"/>
      <stop offset="1" stop-color="#22c55e" stop-opacity="0"/>
    </radialGradient>
  </defs>

  <rect width="1200" height="675" fill="url(#bg)"/>
  <rect width="1200" height="675" fill="url(#pulse)"/>

  <!-- grid -->
  <g opacity="0.12" stroke="#86efac" stroke-width="1">
    <path d="M0 90H1200"/>
    <path d="M0 180H1200"/>
    <path d="M0 270H1200"/>
    <path d="M0 360H1200"/>
    <path d="M0 450H1200"/>
    <path d="M0 540H1200"/>
    <path d="M120 0V675"/>
    <path d="M240 0V675"/>
    <path d="M360 0V675"/>
    <path d="M480 0V675"/>
    <path d="M600 0V675"/>
    <path d="M720 0V675"/>
    <path d="M840 0V675"/>
    <path d="M960 0V675"/>
    <path d="M1080 0V675"/>
  </g>

  <!-- eye -->
  <g transform="translate(300,160)">
    <path d="M300 180c-130 0-240 78-300 160 60 82 170 160 300 160s240-78 300-160c-60-82-170-160-300-160z" fill="#0b1220" stroke="#86efac" opacity="0.85"/>
    <circle cx="300" cy="340" r="88" fill="#052e1b" stroke="#86efac" opacity="0.9"/>
    <circle cx="300" cy="340" r="30" fill="#86efac" opacity="0.9"/>
    <circle cx="330" cy="310" r="10" fill="#eafff0" opacity="0.7"/>

    <!-- scan rings -->
    <g fill="none" stroke="#22c55e" opacity="0.35">
      <circle cx="300" cy="340" r="140"/>
      <circle cx="300" cy="340" r="200"/>
    </g>
  </g>
</svg>
